<svg viewBox="0 0 200 200" width="100%" height="100%" xmlns="http://www.w3.org/2000/svg">
    <path fill="#FA4D56"
        d="M40.4,-57.8C50.5,-48.2,55.7,-34,62.7,-18.9C69.7,-3.7,78.5,12.3,77.8,28.6C77.1,44.9,66.8,61.4,52.3,71.4C37.7,81.4,18.9,84.9,0.3,84.6C-18.3,84.2,-36.7,80,-48.4,69C-60.2,58.1,-65.4,40.5,-68.8,23.8C-72.2,7.2,-73.7,-8.6,-69.2,-22.5C-64.7,-36.3,-54.2,-48.2,-41.6,-57C-29.1,-65.7,-14.5,-71.4,0.3,-71.8C15.1,-72.2,30.3,-67.3,40.4,-57.8Z"
        transform="translate(100 100)" />
    <path fill="#FA4D56"
        d="M44.1,-58.9C58,-50.5,70.9,-38.9,78.7,-23.5C86.5,-8.2,89.3,10.9,83.6,26.8C77.9,42.7,63.7,55.4,48.4,66.8C33,78.2,16.5,88.3,-1,89.7C-18.6,91.1,-37.2,83.9,-52.5,72.5C-67.9,61.1,-80,45.5,-81.4,29.3C-82.8,13,-73.4,-3.9,-65.4,-18.9C-57.3,-34,-50.6,-47.2,-39.9,-56.6C-29.2,-66.1,-14.6,-71.8,0.2,-72.1C15.1,-72.4,30.1,-67.3,44.1,-58.9Z"
        transform="translate(100 100)" />
    <path fill="#FA4D56"
        d="M42.9,-60.3C54.1,-50.9,60.7,-36.4,63.9,-21.8C67.2,-7.3,67.2,7.3,62.4,19.8C57.7,32.4,48.3,43,37.1,53.2C25.9,63.4,13,73.3,-0.9,74.6C-14.9,75.9,-29.7,68.7,-44.5,59.6C-59.4,50.5,-74.1,39.7,-79.9,25.2C-85.6,10.7,-82.3,-7.5,-76.9,-25.3C-71.6,-43.2,-64.3,-60.8,-51.1,-69.5C-37.9,-78.2,-19,-78.2,-1.6,-76C15.8,-73.9,31.7,-69.6,42.9,-60.3Z"
        transform="translate(100 100)" />
    <path fill="#FA4D56"
        d="M41,-54.4C53.9,-47.1,65.7,-36.1,73.6,-21.6C81.6,-7,85.8,11.1,81.1,26.6C76.3,42,62.7,54.8,47.7,64.5C32.7,74.2,16.4,80.9,-1.5,82.9C-19.3,84.9,-38.7,82.4,-50.2,71.5C-61.6,60.7,-65.2,41.5,-69.6,23.7C-73.9,5.8,-78.9,-10.7,-73.9,-23.3C-68.8,-35.9,-53.7,-44.4,-39.7,-51.3C-25.7,-58.2,-12.8,-63.4,0.6,-64.3C14.1,-65.1,28.1,-61.6,41,-54.4Z"
        transform="translate(100 100)" />

    <path fill="#FA4D56"
        d="M39.9,-55.4C54.2,-44.6,69.9,-36.2,73.8,-24C77.6,-11.9,69.6,4.1,62.6,18.7C55.6,33.3,49.5,46.5,39.2,54.3C29,62.1,14.5,64.4,-1.1,65.9C-16.7,67.4,-33.3,68.1,-47.3,61.5C-61.3,54.9,-72.6,41.1,-79.7,24.6C-86.9,8.1,-89.9,-11.1,-83.8,-26.4C-77.6,-41.7,-62.3,-53.1,-46.8,-63.6C-31.3,-74,-15.6,-83.4,-1.4,-81.5C12.8,-79.6,25.7,-66.3,39.9,-55.4Z"
        transform="translate(100 100)" />
    <path fill="#FA4D56"
        d="M46.9,-66.7C59.3,-55.5,66.8,-39.8,68.6,-24.6C70.4,-9.3,66.5,5.5,63.3,22.2C60.1,38.9,57.6,57.4,47.2,65.3C36.7,73.3,18.4,70.7,1.1,69.1C-16.1,67.6,-32.2,67.1,-44.5,59.7C-56.8,52.4,-65.3,38.2,-73,21.9C-80.8,5.7,-87.8,-12.5,-82,-25.5C-76.2,-38.5,-57.6,-46.1,-41.9,-56.2C-26.1,-66.4,-13,-78.9,2.1,-81.8C17.2,-84.7,34.5,-78,46.9,-66.7Z"
        transform="translate(100 100)" />



</svg>